<svg width="20" height="20" viewBox="0 0 20 20" fill="none" xmlns="http://www.w3.org/2000/svg">
<path d="M18.3445 8.24959L17.1822 9.79919C17.184 9.9361 17.1825 10.0822 17.1805 10.1987L18.344 11.7499C18.4009 11.8259 18.4399 11.9138 18.4578 12.0069C18.4757 12.1001 18.4722 12.1962 18.4475 12.2878C18.2524 13.0108 17.9648 13.7056 17.5919 14.3551C17.5446 14.4374 17.4792 14.5079 17.4006 14.5611C17.322 14.6144 17.2323 14.649 17.1383 14.6625L15.2253 14.9357C15.1316 15.0348 15.0352 15.1312 14.936 15.225L14.6628 17.1372C14.6494 17.2312 14.6148 17.3208 14.5615 17.3994C14.5083 17.478 14.4379 17.5434 14.3556 17.5907C13.7064 17.964 13.0118 18.2519 12.289 18.4475C12.1973 18.4723 12.1012 18.4758 12.008 18.4579C11.9147 18.44 11.8268 18.4011 11.7508 18.3442L10.2049 17.1846C10.0687 17.1883 9.93201 17.1883 9.79575 17.1846L8.2505 18.3436C8.17457 18.4005 8.08667 18.4394 7.99347 18.4573C7.90028 18.4752 7.80422 18.4717 7.71259 18.447C6.98959 18.2519 6.29477 17.9644 5.64534 17.5915C5.56301 17.5442 5.49254 17.4788 5.43928 17.4002C5.38601 17.3216 5.35134 17.2319 5.33791 17.1379L5.06474 15.2249C4.96568 15.1312 4.86923 15.0348 4.7754 14.9355L2.86317 14.6624C2.76923 14.649 2.67957 14.6144 2.601 14.5611C2.52244 14.5079 2.45702 14.4375 2.40972 14.3552C2.03643 13.706 1.74845 13.0114 1.55291 12.2885C1.52813 12.1968 1.52456 12.1007 1.54247 12.0075C1.56038 11.9143 1.59931 11.8263 1.65629 11.7504L2.81862 10.2008C2.81687 10.0639 2.81828 9.91782 2.8203 9.80128L1.65682 8.25004C1.59988 8.17412 1.56097 8.08623 1.54304 7.99304C1.52512 7.89985 1.52865 7.80379 1.55337 7.71217C1.74847 6.98916 2.03601 6.29435 2.40889 5.64491C2.45618 5.56259 2.52161 5.49212 2.6002 5.43886C2.6788 5.3856 2.7685 5.35094 2.86249 5.33753L4.77555 5.06433C4.8692 4.96522 4.96564 4.86877 5.06486 4.77498L5.33799 2.86276C5.35141 2.76881 5.38606 2.67915 5.43929 2.60059C5.49252 2.52202 5.56295 2.45661 5.64523 2.40931C6.2944 2.03602 6.98901 1.74804 7.71187 1.55249C7.80352 1.52771 7.89962 1.52413 7.99287 1.54204C8.08611 1.55995 8.17405 1.59886 8.25001 1.65583L9.79591 2.81542C9.93217 2.81157 10.0688 2.81157 10.2051 2.81542L11.7503 1.6564C11.8262 1.59945 11.9141 1.56054 12.0073 1.54262C12.1005 1.5247 12.1966 1.52825 12.2882 1.55299C13.0112 1.74807 13.7061 2.0356 14.3555 2.40847C14.4378 2.45577 14.5083 2.5212 14.5615 2.59979C14.6148 2.67839 14.6495 2.76808 14.6629 2.86207L14.9367 4.77968C15.0348 4.87527 15.137 4.97953 15.218 5.06337L17.1376 5.33757C17.2316 5.35099 17.3213 5.38562 17.3998 5.43885C17.4784 5.49208 17.5438 5.5625 17.5911 5.64477C17.9644 6.29396 18.2524 6.9886 18.4479 7.71149C18.4727 7.80314 18.4763 7.89923 18.4584 7.99247C18.4404 8.08571 18.4015 8.17364 18.3445 8.24959ZM10.0004 6.56254C9.3205 6.56254 8.6559 6.76415 8.09061 7.14186C7.52531 7.51958 7.08472 8.05644 6.82455 8.68456C6.56437 9.31268 6.4963 10.0038 6.62893 10.6706C6.76157 11.3375 7.08896 11.95 7.5697 12.4307C8.05044 12.9114 8.66294 13.2388 9.32975 13.3715C9.99656 13.5041 10.6877 13.436 11.3158 13.1759C11.944 12.9157 12.4808 12.4751 12.8585 11.9098C13.2363 11.3445 13.4379 10.6799 13.4379 10C13.4368 9.08867 13.0743 8.21493 12.4299 7.5705C11.7855 6.92607 10.9117 6.56357 10.0004 6.56254Z" fill="#B8B8B8"/>
</svg>
