<svg width="22" height="22" viewBox="0 0 22 22" fill="none" xmlns="http://www.w3.org/2000/svg">
<path d="M13.75 17.875C13.75 18.6044 13.4603 19.3038 12.9445 19.8196C12.4288 20.3353 11.7293 20.625 11 20.625C10.2707 20.625 9.57118 20.3353 9.05546 19.8196C8.53973 19.3038 8.25 18.6044 8.25 17.875H13.75ZM17.875 16.5H2.8875C2.6687 16.5 2.45885 16.4131 2.30414 16.2584C2.14942 16.1037 2.0625 15.8938 2.0625 15.675C2.0625 15.4562 2.14942 15.2464 2.30414 15.0917C2.45885 14.9369 2.6687 14.85 2.8875 14.85H4.125V9.62501C4.125 6.29751 6.49 3.52001 9.63188 2.88751C9.61268 2.69632 9.63378 2.50323 9.6938 2.3207C9.75381 2.13816 9.85142 1.97023 9.98033 1.82774C10.1092 1.68525 10.2666 1.57135 10.4422 1.4934C10.6178 1.41546 10.8079 1.37518 11 1.37518C11.1921 1.37518 11.3822 1.41546 11.5578 1.4934C11.7334 1.57135 11.8908 1.68525 12.0197 1.82774C12.1486 1.97023 12.2462 2.13816 12.3062 2.3207C12.3662 2.50323 12.3873 2.69632 12.3681 2.88751C13.922 3.20358 15.319 4.04688 16.3225 5.27467C17.326 6.50245 17.8745 8.03929 17.875 9.62501V14.85H19.1125C19.3313 14.85 19.5411 14.9369 19.6959 15.0917C19.8506 15.2464 19.9375 15.4562 19.9375 15.675C19.9375 15.8938 19.8506 16.1037 19.6959 16.2584C19.5411 16.4131 19.3313 16.5 19.1125 16.5H17.875Z" fill="#B8B8B8"/>
</svg>
