<svg width="36" height="40" viewBox="0 0 36 40" fill="none" xmlns="http://www.w3.org/2000/svg">
<circle cx="18" cy="18" r="18" fill="#E5E5E5"/>
<path d="M27.007 31.4445L22.2305 29.0565C21.78 28.831 21.5 28.378 21.5 27.874V26.1835C21.6145 26.0435 21.735 25.884 21.8595 25.708C22.479 24.833 22.9755 23.859 23.3365 22.8085C24.042 22.485 24.5 21.7875 24.5 21V19C24.5 18.5185 24.32 18.052 24 17.6875V15.028C24.028 14.753 24.138 13.116 22.954 11.7655C21.927 10.594 20.2605 10 18 10C15.7395 10 14.073 10.594 13.046 11.765C11.862 13.1155 11.972 14.753 12 15.028V17.6875C11.68 18.052 11.5 18.5185 11.5 19V21C11.5 21.6085 11.7765 22.176 12.2485 22.5545C12.7065 24.368 13.665 25.7345 14 26.173V27.8275C14 28.3115 13.736 28.7555 13.3115 28.9875L8.851 31.4205C7.4005 32.212 6.5 33.729 6.5 35.381V37C6.5 39.373 14.0225 40 18 40C21.9775 40 29.5 39.373 29.5 37V35.4785C29.5 33.7595 28.5445 32.2135 27.007 31.4445Z" fill="white"/>
</svg>
